<svg xmlns="http://www.w3.org/2000/svg" xmlns:xlink="http://www.w3.org/1999/xlink" version="1.1" id="Layer_1" x="0px" y="0px" width="800px" height="800px" viewBox="0 0 800 800" enable-background="new 0 0 800 800" xml:space="preserve" style="cursor: default;"><head xmlns=""/>
<g>
	<path fill-rule="evenodd" clip-rule="evenodd" fill="#246035" d="M398.162,680.144c0,3.946-4.18,5.542-6.669,7.243   c-2.393-1.059-1.796-4.474-1.196-6.492C392.586,677.59,395.569,678.551,398.162,680.144 M400.052,677.59   c-2.191-1.483-6.07-2.761-9.157-1.275v-2.554l9.157,0.635V677.59z M420.063,682.172c-3.487,0.958-2.889-3.403-4.279-5.215   l0.599-5.868C420.36,672.375,418.868,678.44,420.063,682.172z M380.634,681.539c-1.988-3.949-1.988-8.52,0-12.37V681.539z    M338.122,669.169c1.196,2.89-1.988,2.573-3.089,3.851h-0.597c-0.694-1.931-0.392-4.799,1.294-6.501   C337.33,665.887,337.523,668.221,338.122,669.169z M434.608,665.887c-0.107,1.166,0.496,2.65-0.604,3.282h-1.197v-3.282H434.608z    M422.459,668.537c2.78,4.164,2.187,9.903,3.087,14.91c-2.592,1.494-2.195,6.601-6.075,5.236c-1.1,0.73-1.395,1.898-1.197,3.185   l2.384,3.305c-2.087,1.703-4.67-2.771-6.663,0.635c-0.297-1.286,1.094-6.175-1.796-7.778c-0.697,0-1.589-0.199-1.89,0.654   c-1.297-1.505-0.099-3.424,1.291-4.594c2.489-7.35-7.966-12.031-1.891-17.571c2.791,0.852,6.075,3.403,7.27-1.286   C419.865,663.848,421.064,667.686,422.459,668.537z M396.97,669.822c-0.899,2.119-3.587,1.483-4.882,0.634   c-2.192-1.166-2.094-4.057-1.193-5.856C393.774,665.439,396.372,666.202,396.97,669.822z M387.908,686.645   c-2.292,0.851-6.077-1.276-3.687-3.83l1.197-1.275v-18.858h2.49V686.645z M438.29,663.313c0,5.225-6.877,12.042,0,15.555   c3.285,0.958,2.682-3.513,5.473-3.828c-1.595,2.869-1.693,6.281-4.88,8.408c-1.691-1.167-4.075-0.534-6.075-0.633   c0.299-7.775-11.25-15.881-1.791-22.056L438.29,663.313z M340.511,663.313c0,0.651,0.203,1.604-0.599,1.92   c-1.389-1.069-2.087-2.552-1.79-4.474C339.813,660.127,339.912,662.362,340.511,663.313z M404.827,667.905   c1.997,6.814-0.392,13.307-4.775,18.097c-5.179,3.947-10.952,8.32-17.622,6.499c-3.187-1.385-6.576-4.354-8.465-7.776   c-1.297-5.215-0.697-11.182,1.792-15.556c6.375-2.77,11.952-14.475,20.615-9.151C399.558,661.502,402.941,664.499,404.827,667.905z    M347.783,661.402h1.291c-4.576,3.514-5.475,10.003-7.365,15.555c0.997,2.868,2.487-0.643,3.685,1.277   c-2.594,0.96-4.583,3.62-7.872,2.66c-1.49-1.177,0.4-3.729-1.792-4.58c-2.785-0.96-6.07,3.829-7.365-0.653   c-4.383-10.745,11.546-9.143,7.965-19.483C340.714,656.506,344.796,657.672,347.783,661.402z M363.017,658.098   c-5.378,7.135-6.873,16.089-10.355,24.074l2.489,3.196c-1.693,0.543-2.889,1.811-4.878,1.276c-1.5-1.703-3.685-3.413-3.685-5.75   c5.376-6.708,6.87-15.127,10.353-22.797c-0.201-1.069-2.291-2.126-0.593-3.195C356.94,658.948,361.022,656.506,363.017,658.098z    M324.184,654.902c0.396,3.839-1.592,8.945-4.278,11.616c-2.889-3.206,0.599-6.927,1.192-10.341   C322.191,655.654,322.791,654.378,324.184,654.902z M463.779,669.169c-0.199,1.821-0.901,3.206-2.493,4.592   c-6.967-2.988-4.473-13.318-11.46-16.307c-3.878,4.264,1.604,9.064,2.395,13.635c3.188,1.286,1.406,4.572,0.594,6.501   c-6.965,1.179-3.977-7.768-7.263-11.071c-1.393-2.02-1.789-5.65-4.889-5.76c0.615-2.018,0.813-7.666,4.296-4.581   c4.977,4.69,3.78-8.083,9.657-3.295l1.89-2.571C456.209,656.506,458.593,664.6,463.779,669.169z M500.814,652.883   c-0.298,1.703-1.988,2.662-3.086,3.939l-4.286-6.511C495.441,646.372,501.112,648.825,500.814,652.883z M496.53,643.82   c0.395,3.087-2.89,2.138-4.283,3.304l-0.596-0.752C492.553,645.325,494.442,643.405,496.53,643.82z M480.699,643.82   c1.898,5.856,6.074,11.398,5.481,17.582c-5.186-0.327-4.78-6.5-7.263-9.804l0.594-7.778H480.699z M302.876,655.545l-1.792,0.633   c-1.394-4.364,2.089-8.302,3.681-12.357C309.55,647.757,303.476,651.599,302.876,655.545z M327.174,641.268   c-2.292,2.771-4.285,5.856-4.181,9.696l6.668,0.635c1.297,6.499-1.993,12.564-4.278,18.224c-2,2.437-5.681,0.318-7.866,1.92   l-6.077-7.143c3.282-4.375,4.088-9.905,6.077-14.923l-1.896-1.92c3.384-1.385,6.076-4.787,4.884-9.152   C322.493,640.316,324.481,641.701,327.174,641.268z M304.173,668.537l1.192,1.285c-2.192-0.217-1.396-2.77-2.489-3.936   c-2.291,2.019-4.976,1.483-6.074,2.019c2.588-1.703,5.075-4.375,4.877-7.888c-4.278,0.207-9.856-1.92-6.669-7.776   c3.191-4.801,2.693-15.873,11.552-13.637C322.295,646.372,303.668,657.989,304.173,668.537z M288.337,639.237   c0.302,3.95-1.785,7.135-2.979,9.817c-1.597,2.544-3.985,0.406-5.482-0.645c0.105-0.653-0.301-0.97-0.593-1.286   c1.589-0.851,4.379-0.752,4.779-3.304C286.25,642.552,284.661,635.41,288.337,639.237z M494.135,659.374   c-1.385,0.533-2.483,1.811-4.274,1.385c0-1.493-0.296-3.087,1.188-3.937c-2.987-6.601-6.47-13.101-8.45-20.137   C487.269,643.405,490.256,651.813,494.135,659.374z M509.273,651.599l1.802-1.922c-0.099,3.097-1.01,5.868-2.395,8.421   c-2.097,0.315-3.988-0.316-5.482-1.92c-3.186,4.69-6.371,10.341-12.15,11.073c-6.965,0.654-13.339-2.979-17.019-8.51   c1.088-4.798,0-10.865,3.088-14.921c-0.594-1.168-2-0.415-3.088-0.633c-1.591,1.918-3.878,3.402-2.986,6.489   c-1.693-0.216-1.693-2.116-2.395-3.305c0.395-3.402,0.998-7.768,4.785-8.41c2.89-0.742,6.275-0.316,8.571-2.552H481.4v-3.298h0.604   c1.286,0.636,4.078,2.979,4.769,5.85c1.891,1.603,1.287,4.59,3.682,5.858c1.702-0.316,3.779-1.168,4.285-3.195   c0.404-2.347-1.001-3.722-2.493-5.215c-2.09-0.852-1.297,1.92-2.98,2.552c-1.404-2.444-0.197-6.49,1.188-9.044   c2.592,0.099,5.185,0.099,6.67-2.553C498.223,636.042,503.803,644.355,509.273,651.599z M251.302,631.472   c-1.192,0.219-1.989,2.019-3.583,1.276c-0.197-2.662-0.197-5.432,2.391-7.135C251.503,627.316,252.695,629.562,251.302,631.472z    M529.282,642.552c0.504,1.804-0.596,3.089-1.188,4.572h-1.801c-4.273-4.787-6.065-11.714-10.943-15.012   c-4.076,5.107,1.988,10.439,4.285,15.012c1.295,1.701,0.087,3.84-1.298,5.117c-6.174,0-3.878-8.421-7.865-11.616   c-1.791-1.158-1.198-5.107-4.285-3.939c-2.69-9.688,7.67-0.108,7.372-7.768c1.494-4.046,7.371,0.315,7.262-5.225   C519.922,631.69,525.204,637.962,529.282,642.552z M535.959,632.748c0.792,3.62,5.769,2.77,3.078,7.252   c-0.988,2.552-2.474,0.09-3.682,0c-4.867-4.482-5.164-11.952-9.656-16.938c0.298-2.77,2.493-4.273,4.789-2.554L535.959,632.748z    M254.388,621.775v1.918c-2.587,0.634-1.692-2.552-2.482-3.838C252.992,619.855,253.592,621.142,254.388,621.775z M295.604,622.408   c-4.075,0.97-7.063,5.64-7.855,9.704l2.385,2.021c1.993-3.62,4.379-7.45,7.964-9.806c1.891,0,4.082-0.315,5.379,1.286   c-2.988-1.385-6.372,2.127-7.272,5.225c-1.691,8.083-2.988,17.572-10.25,22.045c-6.972,2.979-10.355-7.459-17.025-7.144   c2.886-7.135,13.042,3.722,13.339-7.135c1.196-2.879-1.792-4.046-2.984-5.856h-1.297v-1.91c4.878,0.525,7.164-2.79,9.762-6.511   c-1.098-2.235-3.195-4.688-6.075-3.819c-0.599,0.416-0.9,1.584-1.798,1.268C284.062,613.463,290.133,620.823,295.604,622.408z    M551.189,628.274c-5.978,3.197-3.879-5.551-6.671-7.767l1.801-3.959C548.001,620.508,550.396,624.012,551.189,628.274z    M262.854,620.508c-2.692,1.9-6.077,10.22-7.269,16.178c0.595,3.404,3.78-1.168,2.984,1.276c-2.29,0.854-4.181,2.453-6.663,2.663   c-0.901-6.709-6.477-2.347-9.664-5.215c-4.581-9.599,10.454-11.717,8.461-19.493C255.981,611.979,257.975,620.924,262.854,620.508z    M526.897,615.917c-1.595-0.852-2.188-3.087-1.89-5.214c0.989,0.523,0.989-1.067,1.89-0.644V615.917z M563.34,611.336   c-0.792,0.959-0.694,2.661-0.694,3.938l-3.58-6.49C561.352,608.14,562.043,610.377,563.34,611.336z M542.026,615.917   c3.986-0.534,2.791-8.092,7.28-5.214c3.682,4.995,5.474,11.072,7.265,16.939l-4.177,6.49c-3.394-0.851-5.778,1.385-9.162,0.633   c-0.099-7.342-3.889-14.594-9.657-20.114c0.297-2.989,1.483-5.551,3.584-7.789C533.971,611.227,540.046,613.681,542.026,615.917z    M205.801,611.336c-1.093,0.535-1.692,1.811-3.084,1.276c-1.295-2.345-0.103-5.115,1.293-7.135   C206.399,605.478,206.998,609.425,205.801,611.336z M600.88,606.862c-0.396,1.595-2.395,2.238-4.187,1.921l0.603-4.582   C599.888,603.133,599.077,606.012,600.88,606.862z M567.515,608.783c-0.893,4.363-6.461,9.895-1.78,13.625   c2.088,0.315,3.877-0.316,5.472-1.9v-1.386c2.988,4.571-2.879,4.89-3.691,8.521h-6.669c-1.385-6.402-3.583-12.991-7.857-17.583   c2.879-0.635,5.869-3.403,6.67-6.51C562.349,604.835,565.833,606.012,567.515,608.783z M432.215,604.835h-1.899v-1.909h1.899   V604.835z M428.534,601.648c0,0.633,0.198,1.583-0.604,1.901c-0.098-0.318-2.286-1.802-0.604-2.554   C427.625,601.333,427.93,601.748,428.534,601.648z M226.411,606.22c3.487-0.426,8.063-2.761,7.866,3.205v0.635   c1.988,1.167,7.465-4.364,7.367,1.276c1.197,3.087,2.89-0.426,4.784,0.644c-5.278,4.145-9.366,11.714-8.465,18.858   c-1.4,0.525-2.389,1.801-4.286,1.274c-3.283-6.617,3.384-12.14,3.687-18.758l-1.193-1.375c-8.063,2.977-4.283,15.444-12.148,15.663   c-4.384-6.086,4.877-10.875,4.279-17.583c0.302-0.959-0.792-1.276-1.291-1.92c-5.081,1.285-4.786,7.243-7.269,10.982   c1.094,0.517,0.495,1.802,0.593,2.653c-1.588,0.633-2.883,4.154-4.777,1.918c-0.495-1.483-1.693-2.552-1.292-4.571   c4.482-2.889,3.983-9.063,6.07-13.645l-2.389-1.928c1.796-0.94,4.681-3.503,7.267-1.901   C225.514,603.231,224.423,605.369,226.411,606.22z M208.79,600.996c-0.101,0.752,0.494,2.137-0.604,2.554   c-0.991,0-1.588-1.269-2.385-1.901l0.598-2.67C207.195,599.828,208.186,599.828,208.79,600.996z M594.21,597.71   c-0.108,1.269,0.494,2.969-0.593,3.938c-1.603,0.731-1.603-1.285-2.395-1.918C590.42,597.374,593.003,597.71,594.21,597.71z    M581.467,598.979c0.592,4.907-2.988,2.77-5.383,3.947c0.89,5.214,2.195,10.755,6.669,13.623l1.197-1.275l-1.197,5.868h-6.669   c-0.1-5.759-2.792-13.535-7.361-16.307c0.789-1.702,0.789-3.839,2.483-5.104C576.379,606.327,576.678,591.092,581.467,598.979z    M435.796,602.926c0,2.443-1.889,5.005-4.175,5.214c-5.482-2.444-7.667,5.857-10.964,1.92c9.857,0.961,0.803-9.915,7.877-13.001   C431.117,598.563,435.203,598.878,435.796,602.926z M217.347,598.345c-5.075,4.887-5.372,11.715-6.663,18.204l2.984,0.654   c-1.495,1.802-4.878,1.802-7.269,2.652c-1.197-1.067,0-3.307-1.792-3.938c-3.086-1.812-8.365,4.056-7.866-2.563   c-0.999-4.461,1.595-7.877,4.78-9.805c1.093,0.532,1.692-0.624,2.489-1.269c0.697-2.77-1.396-4.373-0.6-7.143   c4.482-0.851,9.064-1.919,11.449,3.206H217.347z M366,589.924c-0.297,0.959,0.8,1.276,1.295,1.931   c2.687-0.972,5.372-1.724,7.866-3.206c-1.098,7.341-11.849,6.291-12.738,14.277c-1.1-4.048,2.582-7.787-1.9-10.341   c-6.67,1.058-2.483,10.341-5.373,14.912c-2.889-4.364-0.199-13.317,2.389-18.849C360.226,585.56,365.005,585.769,366,589.924z    M597.296,588.004c0.396,3.403-1.098,7.786,1.189,10.341c5.48-1.604,4.681,5.205,7.262,7.875   c-0.593,7.777-8.055,5.76-10.846,11.608c-2.195-3.723,2.395-12.133-5.48-10.966c-3.087-4.253-4.77-9.488-0.595-13.643   c2.693,0.335,4.988-0.854,6.671-3.296c-0.495-1.494-2.593-3.085-1.287-4.583C596.496,584.382,596.387,586.839,597.296,588.004z    M441.872,606.862c-0.594-7.984-10.251-14.158-5.482-22.153C439.181,591.734,446.453,598.227,441.872,606.862z M613.622,598.345   c1.881,2.771,4.177,2.334,2.484,5.856c-0.604,1.168-1.989,0.535-3.086,0.634c-4.482-4.788-5.878-11.192-10.262-16.187   c-1.385-1.494,0-3.308,0.604-4.583C611.427,583.967,607.252,594.939,613.622,598.345z M344.796,589.28   c-2.297,0.851-4.285,2.236-6.075,4.592c2.888,3.721,7.267,3.404,10.952,5.106c-0.599,4.797-4.577,6.391-8.563,4.571   c-2.889-1.802-6.768-1.802-8.465-5.205c1.995-9.064,11.354-10.341,17.029-15.556C350.371,585.243,347.085,587.479,344.796,589.28z    M199.132,585.341h4.278c-6.368,7.244-8.964,16.091-13.442,24.084c0.797,2.129,2.792,0.952,4.285,1.278   c-1.396,1.909-4.582,2.127-7.272,1.909l-2.385-4.473c4.977-8.093,10.85-15.98,12.744-25.351   C197.341,583.967,198.533,584.6,199.132,585.341z M164.485,588.648c-0.9,1.166-2.692,3.086-4.783,2.552l-5.478-8.411   C158.41,582.472,161.195,586.409,164.485,588.648z M330.261,586.095c-2.593,0.744-2.89-1.812-4.285-2.662   c-0.204-1.812,2.39-2.148,4.285-1.92V586.095z M475.928,579.583c0,1.079-1.305,1.701-1.898,2.563   c-0.692-0.206-1.9,0.535-2.395-0.633c-0.495-1.613,0.604-2.998,1.799-3.314C474.524,577.783,475.117,578.961,475.928,579.583z    M463.177,586.729c-0.804,2.77-3.682,2.77-6.078,2.552l-4.878,5.216c1.099,2.563,0.396,5.966,0.594,9.054   c-3.777-5.957-7.757-13.102-6.063-22.037c2.385,0.851,2.286,6.176,6.063,4.582c2.595-1.495,2.097-4.265,3.09-6.512   c1.006,0.653,2.195,3.521,4.183,3.206c2.09-1.276,2.286-3.512,2.494-5.856C464.472,578.961,463.878,583.749,463.177,586.729z    M335.731,578.83c-0.196,8.541-3.581,16.626-10.348,20.9c0-2.356,2.285-3.623,2.384-5.858c-1.995-2.672-5.576-2.355-6.67-5.868   c1.792-4.364,3.187-9.806,7.866-12.357C331.75,575.33,334.738,575.864,335.731,578.83z M192.458,579.583   c-6.374,6.295-9.756,15.873-12.746,23.343c0.704,2.126,2.693,0.96,4.281,1.275c-2.188,2.345-4.878,2.978-7.967,2.661   c-7.36-6.4,3.686-10.438,4.285-16.306c1.792-4.997,6.372-9.578,5.477-14.91C187.479,578.198,189.871,579.05,192.458,579.583z    M602.759,581.513l-2.482-6.502h4.284L602.759,581.513z M306.562,575.646v1.92c-1.098,0.533-1.697-0.634-2.389-1.287   c-0.698,0.868-1.697,1.504-1.297,2.551c1.598,3.315,4.878,1.724,6.673,3.959l-15.736,0.644l6.075-4.603   c-2.89-4.352,3.587-2.017,4.878-4.452C305.668,574.161,306.656,574.479,306.562,575.646z M171.853,573.727   c-1.396,2.89-2.89,8.745-6.077,7.786c-1.396-1.177-3.086-1.493-4.278-3.314C164.976,576.813,168.165,574.479,171.853,573.727z    M619.698,576.933v1.897c-0.998,0.131-1.602,1.406-2.394,2.039c1.988,4.899,3.978,9.688,7.867,13.627l2.482-0.624   c-1.087,1.384,0.396,4.154-1.881,5.106c-7.975,2.67-4.985-6.394-9.063-9.698l-5.482-7.135c0.495-3.096-1.096-6.815,1.2-9.054   C613.525,576.279,617.305,577.566,619.698,576.933z M637.905,580.869v1.92c-2.277-2.453-6.461-5.976-4.177-10.331   C637.212,573.727,637.312,577.783,637.905,580.869z M480.699,577.566c1.691,4.905,4.483,10.122,2.494,15.653   c-2.297-2.98-4.889-10.115-9.164-4.571c-3.285,0.523-5.085-2.454-6.075-5.216c0.199-4.155-0.692-9.59,3.089-11.727   C475.721,569.788,478.502,574.479,480.699,577.566z M310.843,591.2c-0.298-1.592,2.191-3.512,2.389-5.859   c2.296-5.954-0.501-12.883,7.272-15.553C320.098,577.249,317.615,586.839,310.843,591.2z M168.165,567.868   c-2.686-1.483-6.07-0.514-7.865,2.574v1.264l3.587,0.752c-2.093,1.069-4.184,4.355-7.273,4.475c-0.094-1.385-2.29-3.09-0.592-4.475   c0.498-3.631,3.185-5.757,6.074-7.251C164.085,566.276,166.474,565.959,168.165,567.868z M641.597,578.83   c-1.989,5.77-4.682,11.094-6.077,16.96c1.101,1.486,2.89,2.773,4.285,1.269c1.295-1.069,2.097-2.563,1.792-4.474l2.384,0.635   c0.306,3.105-2.988,5.007-4.769,6.511c-2.592,0.316-5.186-0.534-6.077-3.306c3.485-7.669-3.384-13.953-6.769-20.146   c-0.999-0.415-1.602,0.653-2.395,1.287c-0.294-0.95,0.298-5.334,2.395-7.124c4.868,5.105,6.067-3.088,7.966-5.868   C638.816,568.194,642.2,572.559,641.597,578.83z M174.834,565.959c1.396,3.403,3.983,6.915,7.868,4.483   c-7.269,5.837-10.252,16.076-13.938,24.696c0.897,1.187,2.391,0.435,3.686,0.651c-2.191,0.95-4.58,3.623-7.964,2.555   c-2.196-0.971-0.698-3.405-1.198-5.125c-4.482,0.335-11.545,0.423-12.145-6.491l-2.389-2.02c-1.101,0.632-1.497,2.662-3.088,2.02   c1.291-4.583,6.372-4.257,9.159-7.898c-1.392-4.786-0.501-10.318,2.389-14.256C161.992,560.209,170.457,561.485,174.834,565.959z    M495.937,567.235c-4.681,3.086-1.098,7.876-3.086,11.595c-1.298-1.897-3.188-5.419-6.077-5.104   c-1.79,5.856,7.165,10.24,3.087,16.197c-4.678-6.175-10.052-14.376-6.074-22.056c1.692-2.977,4.076,0,6.074,0   c2.595-1.483,2.297-6.491,5.483-7.135C497.322,561.485,496.628,565.424,495.937,567.235z M398.162,571.073v-28.555l4.874-0.634   l2.494,28.558L398.162,571.073z M417.575,568.512c-1.588,0.109-5.377,2.562-6.674,0l-2.389-26.627   c1.498-1.176,3.686-0.532,5.481-0.643L417.575,568.512z M430.315,566.592c-2.087,0.327-4.177,0.445-5.966,1.276l-4.879-27.903   l5.472-1.276C426.733,547.841,429.127,557.015,430.315,566.592z M344.196,565.207c-1.993-0.633-4.086-1.275-6.074-1.909   l7.272-27.914l5.472,1.286L344.196,565.207z M330.854,561.377l-5.471-2.553l9.054-27.387l5.475,2.038L330.854,561.377z    M285.953,597.059c35.442,19.49,69.599,42.179,111.616,44.861c46.796-4.058,84.217-32.177,125.043-51.363   c43.122-19.919,88.913-30.029,123.269-71.36c3.777,15.763,9.655,30.465,21.204,42.824h1.195   c4.078,6.284,15.931,9.271,12.152,18.849c-39.333,50.284-98.669,57.626-148.657,84.363   c-51.671,27.803-105.834,62.533-169.352,45.497c-42.722-11.738-79.96-36.86-119.583-56.46l-70.391-31.208   c-20.214-10.875-40.721-23.865-55.859-44.863c-2.889-8.836,8.763-10.963,12.151-16.821c11.348-12.664,18.315-27.159,21.203-43.566   C188.678,562.555,238.857,573.727,285.953,597.059z M643.388,501.613c0.494,13.537-14.143,21.096-22.403,30.576l-16.424,10.973   c-1.99-3.839-5.779-5.968-9.063-7.778c15.634-9.37,28.97-24.39,44.308-34.403L643.388,501.613z M292.622,509.402l-15.833,22.035   l-9.657-8.412l16.93-22.677C287.149,502.584,292.917,505.889,292.622,509.402z M165.776,506.204   c10.552,9.688,21.507,18.861,32.757,27.271c-3.489,1.908-6.267,7.767-9.762,7.767c-13.634-9.688-29.664-21.303-37.628-37.709   c-1.297-5.006,4.477-4.038,6.669-3.185L165.776,506.204z M631.234,495.114c-15.027,12.674-29.564,26.646-46.683,33.771   c-2.889-2.119,0.1-4.889,0.595-7.124C597.99,507.788,614.711,501.198,631.234,495.114z M560.25,499.694l-8.458,11.727   c-3.089-1.495-5.68-4.483-8.56-6.503l8.56-11.715C554.78,494.696,557.361,497.567,560.25,499.694z M210.684,523.025v3.305   c-8.367,0.971-15.237-6.074-21.913-11.082l-26.081-22.045C179.516,501.198,198.928,505.986,210.684,523.025z M279.283,495.756   c-5.478,7.678-12.151,14.813-18.225,22.055l-9.152-10.338C261.359,504.168,269.522,474.996,279.283,495.756z M434.005,504.918   c-1.494-0.218-2.592,1.068-4.282,0.633l-7.264-27.269l3.087-1.386L434.005,504.918z M694.967,528.249   c3.482,4.038,7.164,6.186,7.262,11.716c-6.063,10.866-18.116,16.406-29.664,15.555c-12.95-14.919-17.522-33.454-19.421-53.251   c-1.584-4.475-3.779-9.392-8.56-10.985l-4.779,0.644c11.358-4.363,22.402-10.122,32.158-18.857   C674.949,493.519,678.333,513.765,694.967,528.249z M156.021,490.541c-2.093,0.426-9.261-1.275-10.955,3.938   c-4.377,14.161-3.184,30.685-10.254,43.468c-3.187,5.749-6.971,11.081-11.547,16.287c-10.652-2.119-24.395-2.969-27.879-16.931   c-0.698-9.27,9.356-10.339,13.339-17.474c9.261-14.161,15.43-29.604,16.331-47.407   C134.812,479.983,145.065,486.068,156.021,490.541z M332.645,497.676l-6.066-3.196l11.543-23.332l5.477,1.922L332.645,497.676z    M406.725,458.79c3.885,21.728,7.961,43.479,11.549,65.523l-26.186,2.651l-0.595,44.108c-14.34,1.485-26.986-2.016-40.027-4.481   l17.022-85.104v-1.286l7.27,1.286L366,554.234c3.686,1.82,8.063,1.82,12.151,2.572l1.19-1.287l4.879-72.767h7.271v29.31   l14.037-0.642c-0.495-16.941-2.494-34.949-4.279-51.979C403.035,459.225,405.129,459.858,406.725,458.79z M387.908,475.621   c-5.078,0.544-9.262-0.742-13.943-1.277l2.389-15.554l10.954,1.285L387.908,475.621z M464.373,556.163   c-9.263,3.402-17.426,5.639-26.676,9.044l-3.692-13.626l12.746-3.839c-0.803-9.589-5.274-18.958-7.868-28.546   c-4.68,0.318-11.258,3.096-15.237,3.829c-4.175-21.51-8.459-43.358-12.744-64.869c5.383-0.218,10.053-2.137,15.237-2.671   L464.373,556.163z M482.598,547.11c-4.096,1.799-7.975,4.354-12.15,5.857l-40.725-98.116c0.988-1.801,3.679-1.801,5.48-2.552   L482.598,547.11z M355.749,454.852c-3.785,14.813-11.75,30.366-16.43,46.129c2.588,1.92,5.572,2.553,8.465,3.938   c5.977-15.444,10.257-31.739,15.233-47.394c1.196-1.822,3.581,0.414,5.471,0.632c-3.784,20.245-9.262,42.28-14.034,63.604   c-6.971-1.821-13.343-4.594-20.017-7.146c-5.473,13.634-11.053,26.944-15.728,40.904h-1.792   c-10.65-4.905-21.012-10.766-30.964-17.572l6.669-11.617h1.79c6.674,4.789,13.542,8.955,20.612,12.358   c4.679-8.637,7.768-17.897,12.151-26.626l-13.942-8.529v-1.92l29.173-51.342L355.749,454.852z M673.764,448.351   c0.594,20.037-20.521,25.141-32.771,32.506c-9.253,4.361-19.71,5.956-28.564,11.703l-7.867-8.509   c13.536-11.941,29.269-21.412,44.309-31.119C656.924,450.804,664.798,442.395,673.764,448.351z M191.264,482.753   c-2.19,2.989-4.086,5.869-6.667,8.53c-20.111-7.993-41.024-14.168-58.345-29.288c-2.889-4.373-4.679-10.022-2.988-15.554   c5.274-5.008,12.442,0.851,18.217,2.552C159.107,457.524,174.834,470.831,191.264,482.753z M518.337,454.209   c-4.174-1.277-6.963-5.858-10.853-7.768l2.384-3.939l10.952,7.77L518.337,454.209z M521.425,517.811   c-10.051,10.224-20.61,19.067-32.158,25.352c-12.645-20.234-23.509-42.398-35.253-63.594l7.272-4.572l30.961,48.685   c3.689-2.574,7.271-5.126,10.951-7.789l-50.384-68.818c-0.789-0.315-0.594-1.275-0.594-1.919l4.878-2.652   C478.206,467.21,500.606,492.56,521.425,517.811z M333.837,446.441c-1.786,5.215-6.169,10.863-9.654,16.197l-1.19,1.376   l-12.15-7.243l12.748-15.545L333.837,446.441z M295.01,446.441c-3.686,3.185-7.262,6.49-10.948,9.697l-6.076-7.146   C283.662,446.441,289.54,435.675,295.01,446.441z M488.664,439.307c-0.802,2.445-2.287,4.572-4.274,6.491   c-3.791-2.771-9.567-7.135-13.942-11.704C476.523,422.259,482.896,436.845,488.664,439.307z M561.439,464.659   c-8.746,17.146-20.303,33.225-34.542,48.036l-65.611-72.113c1.691-0.958,3.779-3.206,6.074-3.937l58.339,56.558   c2.098-1.494,2.098-3.729,4.187-5.224l-10.251-9.697c0.593-1.811,2.385-3.086,3.581-4.571l10.359,8.409l11.536-16.186   c-3.878-3.296-8.053-5.225-12.14-7.778c-3.186,3.839-5.67,10.646-9.756,11.606c-10.457-8.509-21.104-17.345-31.564-25.884   l9.768-15.021L561.439,464.659z M316.219,435.992l-26.68,28.667l7.263,7.132l9.76-10.447l4.281,4.591l-8.563,10.962l7.271,6.511   c4.281-2.235,6.071-14.604,12.147-9.063l1.296,1.277c-4.779,8.43-10.063,16.623-15.239,24.728   c-9.553-7.789-19.417-14.823-27.879-25.353c-11.25,8.411-21.307,19.483-32.754,27.272c-7.472-8.957-14.338-18.218-20.111-27.925   l11.552-7.134c4.675,5.541,7.466,12.042,12.141,17.563c7.47-6.372,15.134-11.915,22.506-18.839l-10.955-15.663l38.234-25.886   C305.766,428.235,310.941,432.172,316.219,435.992z M495.937,428.235c-0.792,2.651-2.89,4.67-4.285,7.124l-12.14-8.421l6.065-5.214   L495.937,428.235z M296.802,421.091l-73.379,46.119c-1.89-4.362-5.078-8.084-5.478-13.001   c-5.176-10.646-9.458-21.718-12.744-33.118c4.082-1.067,7.768-3.088,12.145-3.197c3.29,11.608,7.57,23.007,13.343,33.763   l61.932-34.403C294.214,417.894,295.511,419.813,296.802,421.091z M569.315,448.351c-2.198,2.78-2.693,8.856-5.976,8.421   l-72.885-39.519l4.285-4.587L569.315,448.351z M197.341,464.015c2.889,2.235,5.273,4.155,6.669,7.776   c1.49,5.442-4.583,4.79-7.27,3.83c-23.593-14.694-44.505-36.54-72.285-40.262c-3.78,0.97-7.267,5.541-9.063,9.162   c0.598,16.822,2.092,37.283-4.279,52.512c-20.308-9.687-37.931-26.202-55.262-43.446c18.226,0.85,37.941,1.8,54.669-3.315   c2.29-1.704,1.092-5.117,0-7.135c-9.262-16.297-16.832-33.341-17.029-53.902C125.055,420.667,158.608,449.528,197.341,464.015z    M697.451,421.725c-3.681,8.628-6.966,17.356-12.151,25.349c0.099,2.138,1.703,4.375,3.592,5.227   c17.327,3.402,37.631,4.689,55.261,1.287c-18.226,17.887-37.144,34.294-58.248,44.831c-8.064-16.298-2.285-36.738-4.878-54.539   c-2.395-4.255-6.473-7.353-10.965-7.887c-10.151-0.1-17.71,6.51-26.674,9.806c-15.637,8.639-29.564,21.729-44.902,31.099   c-2.593,1.07-6.867,1.188-7.858-1.9c-1.403-5.233,4.176-8.32,7.265-10.337c34.748-13.528,66.114-35.483,94.682-64.979h1.197   l10.35-11.078C705.325,399.887,699.747,410.756,697.451,421.725z M345.395,402.232l-6.076,0.632l0.593-16.825h4.884   L345.395,402.232z M570.603,386.683l-32.852-4.587l3.087-7.133l30.368,2.019L570.603,386.683z M88.613,371.766   c34.152,38.348,72.582,68.285,114.797,87.024c6.074,4.699,8.465,11.616,7.273,18.858c-4.883,8.42-16.128,9.045-18.82,18.75   c10.152,7.135,28.773,14.596,26.682,31.851c-2.292,11.716-16.53,8.738-21.204,18.229c46.692,25.665,97.972,41.952,143.769,71.351   c28.075,13.644,68.204,21.409,97.773,5.865c44.903-19.611,86.816-46.88,133.52-61.673c7.56-4.896,16.723-8.954,24.894-13.645   c-3.383-6.816-11.259-7.775-17.037-11.072c-5.273-3.403-4.967-9.905-4.869-14.921c2.485-6.917,8.36-11.814,14.031-16.179   l13.338-8.528c-3.176-13.951-28.26-10.647-18.809-30.466c8.756-15.237,26.182-16.406,39.429-24.708   c20.305-10.862,39.124-25.789,57.054-42.822h1.187l26.687-27.914c1.395,0,2.879-0.316,3.689,1.276   c0,26.311-5.48,49.959-16.434,71.479c9.557,4.046,21.104,3.087,32.267,3.195c13.437,0.851,23.885-6.283,36.926-6.49v2.652   c-23.489,24.825-48.187,46.347-75.269,62.325c0.506,4.049,3.492,8.618,6.779,12.351c6.469,7.558,18.313,13.108,12.743,25.883   c-4.285,12.893-17.632,15.021-26.793,19.494c2.789,2.987,6.579,6.511,6.677,11.079c0.197,15.546-15.327,24.186-24.886,33.772   c-24.893,20.233-53.964,30.991-81.253,43.458c-75.171,25.568-142.09,93.513-230.091,64.344   c-61.337-21.412-115.001-62.315-176.635-83.095c-23.292-11.28-44.996-26.519-64.314-48.149c-2.988-4.057-4.383-9.694-2.988-14.898   c0.899-2.89,2.69-6.83,5.376-7.789c0.401-0.633-0.599-1.594-1.192-1.276c-4.383-2.127-9.958-3.402-14.54-6.489   c-8.664-5.542-11.25-15.564-9.756-25.352c7.168-7.775,14.936-15.139,19.512-23.985c-25.385-17.354-51.374-36.203-72.281-62.414   l-0.598-2.555c6.575-0.65,12.546,3.623,19.418,3.939c14.14,2.771,31.856,3.414,45.496-0.643c-1.495-7.55-5.873-15.644-8.46-23.43   c-4.68-15.24-8.658-32.49-6.074-49.316L88.613,371.766z M585.741,367.195c0.195,11.072,0.195,22.039-2.395,31.841h-6.076   c-1.584-1.81-4.868-1.81-7.262-2.552l-4.88,20.024l-39.43-12.259l-4.879,6.506l2.396,1.91l51.581,18.854l-2.988,9.706   l-73.488-31.855c1.793-5.328,8.264-9.801,10.953-16.192c8.064,2.128,17.119,3.415,24.302,6.501   c7.263,0.316,13.438,3.087,20.602,3.938c0.604-3.087,1.195-6.074,1.8-9.161l-41.813-8.417l8.449-20.121L585.741,367.195z    M382.43,388.602l18.221,0.633c0.993-2.235,0.396-5.104,0.599-7.766l-12.15-0.648v-8.411h31.558v8.411H409.11   c-1.088,2.351-0.396,5.219-0.598,7.781l18.813,0.633l0.604-24.607l2.386-2.661c12.348,7.56,4.492,25.24,6.777,37.714h-81.942   l-0.698,11.711l-23.005,0.641v-11.719l-13.338-0.633v-9.701c4.383-0.534,9.657,1.068,13.338-1.377v-10.978h23.005   c0.499,4.053-0.996,9.059,1.295,12.354c5.869-0.534,12.444,1.068,17.519-1.377v-29.838h9.163V388.602z M365.401,368.472h-9.054   v-9.708h9.054V368.472z M410.309,338.645l-10.856,0.633l-0.692-9.059h11.548V338.645z M236.171,323.085   c-1.894,4.154-0.302,14.698-8.568,9.701l3.087-14.921C232.783,318.716,239.453,318.196,236.171,323.085z M338.122,318.509   l0.599,20.136c-2.885,1.167-6.571,0.524-9.758,0.633c-1.593-7.782-2.494-18.526,3.088-24.717   C335.033,313.285,336.93,316.589,338.122,318.509z M245.231,312.649c0.495,2.348-0.401,5.547-1.792,7.768   c1.687,1.813,4.083,1.813,6.075,2.668c0.595,3.729,1.188,7.244,1.788,10.978c-3.187-0.647-6.472-1.276-9.658-1.924l-2.484,11.726   c-6.376-1.816-13.348-1.816-20.018-2.668c1.495-11.927,3.984-23.647,7.269-35.05C232.388,309.232,239.056,310.523,245.231,312.649z    M441.872,296.453c-2.396,7.564,5.174,7.455,6.074,13.645c3.079,0,4.573,2.443,5.474,5.215c-0.101,12.78,0.504,25.884-0.605,38.238   c-14.832-6.808-4.274-25.984-9.052-37.595c-1.1-2.028-3.383-2.671-4.88-1.396l-1.79,2.672v29.184   c5.373,6.074,11.447,11.829,16.327,18.211v47.404h-9.055v-42.175l-16.436-17.581l0.604-38.99   c5.373-1.061,5.669-9.584,11.547-10.337l0.582-6.495H441.872z M366,315.313h-9.653v-29.936l9.653,8.415V315.313z M366,269.827   c5.475,4.68,11.254,8.731,16.43,14.271v53.259c1.69,1.07,4.085,0.426,6.074,0.644l0.595-52.624   c15.728,3.734,7.47,21.62,9.661,33.132l1.891,1.275h20.006v29.294h-70.384c-1.1,5.64-0.501,12.146-0.6,18.117H318.11v-9.707h20.012   c2.29-1.796,0.698-5.213,1.196-7.768l-21.208-0.643c0.599-12.577-1.593-26.311,1.795-37.704c0.494-3.625,6.564-0.647,4.878-5.863   c2.286-3.729,8.662-0.96,7.861-7.132v-1.926h1.193c-1.389,2.776,3.191,3.093,1.894,5.862c6.378-1.385,5.281,7.782,9.664,7.135   c7.86,6.822,2.389,19.493,4.878,28.551h5.476l0.599-12.997h9.054v12.354c2.191,1.07,4.877,0.426,7.266,0.644v-48.04l-16.32-15.656   v-32.396l9.653,9.059V269.827z M398.761,269.827l16.426,15.55v25.35h-9.657c-1.996-9.054,4.977-23.426-6.077-27.269   c-19.011-4.256-6.867-26.846-10.353-40.258l1.197-1.92C403.337,245.111,397.267,259.709,398.761,269.827z M410.309,202.93   c-2.983,7.455,7.965,3.517,4.878,11.076c1.196,1.701,4.679-1.068,4.284,2.555v1.29c-0.9-0.331-1.896-0.756-3.088-0.644   c-2.294,4.362-0.697,10.429-1.196,15.55c-15.337-3.735-7.764-21.096-9.657-32.382C407.622,200.059,409.709,200.691,410.309,202.93z    M366,225.618l16.43,14.273v33.764c-3.489-2.017-6.673-4.995-9.763-8.414V247.03c-6.768-9.377-22.395-12.146-16.32-28.547   c-0.796-2.131-2.795-0.964-4.285-1.276c-0.099-4.27,6.371-1.924,4.878-7.139c0.298-1.811,2.093-2.454,3.583-2.555   c1.592-2.141-0.698-6.503,3.086-7.139H366V225.618z M382.43,191.208v40.906l-9.763-9.049l0.6-39.624   C376.953,184.717,379.046,189.289,382.43,191.208z M582.059,321.067l3.683,38.347l-60.733,1.275l1.89-7.139l44.309-3.197v-10.433   c-13.646,0.851-27.974,3.403-41.924,5.219c0.604-2.558,1.206-5.219,1.799-7.782c12.45-3.295,25.786-4.037,38.234-7.139   c0.296-2.979-0.297-6.808-1.801-9.802c-11.041,1.386-22.403,5.873-33.939,7.785c2.286-22.691-0.8-47.507-6.678-68.82   c11.646,17.051,18.919,35.903,25.497,55.179c3.88-2.871,13.734-0.633,12.141-7.773c-11.753-39.731-35.649-75.1-68.599-102.577   c-17.435-20.563-39.934-34.098-63.129-42.822v-1.278C503.198,174.383,570.403,244.794,582.059,321.067z M349.673,162.028   c-42.512,14.273-85.925,57.306-95.286,105.136c-2.482,13.205-5.674,25.995-5.47,40.258l-12.747-5.106   c-0.796-16.306,3.282-31.004,4.874-45.485c-10.65,18.955-21.005,38.129-24.291,60.402c-6.571,24.183-8.361,54.326-3.086,79.886   c1.789,0.425,4.383-0.852,6.667-1.386c-2.585-14.69-2.585-30.778-2.389-46.654l33.959,3.197v18.215l6.663,0.643   c0.6,2.236,4.086,6.601,0.6,7.135l-6.077,0.633c-0.698,3.195-0.396,7.465,1.296,10.334l15.732-2.552   c1.094,1.81,1.99,3.405,3.088,5.216c-4.583,2.457-10.955,3.09-16.432,4.586c-1.396,2.552-0.196,5.431,1.199,7.766l20.61-4.57   c0.199,1.593,2.286,2.235,2.489,3.938c-6.673,2.762-14.24,5.644-21.208,9.049l2.988,7.147c7.768-3.62,15.332-7.782,23.698-9.7   l2.988,3.196l-36.448,18.211c-8.162-20.448-14.035-42.919-13.932-67.526c-2.098-1.167-4.882-0.534-7.271-0.644   c1.091,11.937,0.197,26.312,3.086,38.238l-32.258,8.524c-15.935-84.782,10.846-168.096,78.357-217.627   c20.907-15.551,43.807-26.409,68.599-32.377V162.028z M382.43,167.877l16.331,14.921v44.838l16.426,14.921   c-0.099,10.87,0.499,22.041-0.6,32.483c-3.086-2.77-6.372-4.896-9.058-8.517V247.03c-4.482-6.397-12.344-9.693-16.43-15.55v-43.468   l-15.832-14.273l0.697-33.132C386.516,144.338,381.035,157.76,382.43,167.877z M392.786,84.044   c2.784,4.271,6.772,9.169,5.975,15.659v30.471c-17.726-1.92-6.476-22.59-9.661-33.766l-3.089-3.195l-3.581,3.829v27.917   l15.731,15.015l0.599,33.766c-12.75-3.627-8.865-17.884-9.661-28.644l-15.832-14.279c1.098-14.272-2.487-30.471,3.086-42.818   c4.379,0.96,1.198-6.506,6.076-5.229c-0.797-3.077,1.494-5.313,3.581-6.496C390.593,77.771,386.708,85.538,392.786,84.044z"/>
</g>
</svg>